<svg id="Lag_2" data-name="Lag 2" xmlns="http://www.w3.org/2000/svg" viewBox="0 0 1368 770"><defs><style>.cls-1{fill:#4d4d4d;}.cls-2{fill:none;stroke:#000;stroke-miterlimit:10;}.cls-3{fill:#333;}</style></defs><title>bg</title><rect class="cls-1" x="0.5" y="0.5" width="1366" height="768"/><rect class="cls-2" x="0.5" y="0.5" width="1366" height="768"/><g id="Lag_3" data-name="Lag 3"><path class="cls-3" d="M1366.5,1V768.5l-1252-1c58.95-51,156.66-125.09,292-180,273-110.78,437.5-37.41,592-147,78.63-55.78,171.93-171.19,196-441Z" transform="translate(1 1)"/><path class="cls-2" d="M1194.5-.5c-24.07,269.81-117.37,385.22-196,441-154.5,109.59-319,36.22-592,147-135.34,54.91-233,129-292,180l1252,1V1Z" transform="translate(1 1)"/><polyline class="cls-2" points="0.5 1.5 0.5 768.5 333.5 769.5 1367.5 769.5 1367.5 1.5"/></g></svg>